<?xml version="1.0" encoding="UTF-8" standalone="no"?>
<!-- Created with Inkscape (http://www.inkscape.org/) -->

<svg
   xmlns:dc="http://purl.org/dc/elements/1.1/"
   xmlns:cc="http://creativecommons.org/ns#"
   xmlns:rdf="http://www.w3.org/1999/02/22-rdf-syntax-ns#"
   xmlns:svg="http://www.w3.org/2000/svg"
   xmlns="http://www.w3.org/2000/svg"
   xmlns:sodipodi="http://sodipodi.sourceforge.net/DTD/sodipodi-0.dtd"
   xmlns:inkscape="http://www.inkscape.org/namespaces/inkscape"
   id="svg2"
   version="1.1"
   inkscape:version="0.48.4 r9939"
   width="160"
   height="160"
   xml:space="preserve"
   sodipodi:docname="browser.pdf"><metadata
     id="metadata8"><rdf:RDF><cc:Work
         rdf:about=""><dc:format>image/svg+xml</dc:format><dc:type
           rdf:resource="http://purl.org/dc/dcmitype/StillImage" /><dc:title></dc:title></cc:Work></rdf:RDF></metadata><defs
     id="defs6"><linearGradient
       x1="0"
       y1="0"
       x2="1"
       y2="0"
       gradientUnits="userSpaceOnUse"
       gradientTransform="matrix(0,77.806702,77.806702,0,64,25.096649)"
       spreadMethod="pad"
       id="linearGradient24"><stop
         style="stop-opacity:1;stop-color:#666666"
         offset="0"
         id="stop26" /><stop
         style="stop-opacity:1;stop-color:#d5dfe6"
         offset="1"
         id="stop28" /></linearGradient></defs><sodipodi:namedview
     pagecolor="#ffffff"
     bordercolor="#666666"
     borderopacity="1"
     objecttolerance="10"
     gridtolerance="10"
     guidetolerance="10"
     inkscape:pageopacity="0"
     inkscape:pageshadow="2"
     inkscape:window-width="640"
     inkscape:window-height="480"
     id="namedview4"
     showgrid="false"
     inkscape:zoom="1.475"
     inkscape:cx="80"
     inkscape:cy="80"
     inkscape:window-x="0"
     inkscape:window-y="0"
     inkscape:window-maximized="0"
     inkscape:current-layer="g10" /><g
     id="g10"
     inkscape:groupmode="layer"
     inkscape:label="browser"
     transform="matrix(1.25,0,0,-1.25,0,160)"><g
       id="g12"><g
         id="g14"><g
           id="g20"><g
             id="g22"><path
               d="m 66.5,87.081 12.876,0 c -0.773,2.074 -1.651,4.03 -2.638,5.836 l 0,0 c -2.938,5.371 -6.565,8.874 -10.238,9.986 l 0,0 0,-15.822 z m -15.238,5.836 c -0.987,-1.806 -1.866,-3.762 -2.638,-5.836 l 0,0 12.877,0 0,15.822 C 57.828,101.791 54.2,98.288 51.262,92.917 m 33.408,-5.836 11.094,0 C 91.183,93.37 84.787,98.253 77.349,100.949 l 0,0 c 2.96,-3.584 5.465,-8.321 7.321,-13.868 m -52.434,0 11.094,0 c 1.855,5.547 4.361,10.284 7.322,13.868 l 0,0 C 43.213,98.253 36.818,93.37 32.236,87.081 m 53.871,-5 c 1.176,-4.802 1.901,-10.055 2.07,-15.58 l 0,0 15.022,0 c -0.353,5.589 -1.881,10.862 -4.338,15.58 l 0,0 -12.754,0 z m -19.607,0 0,-15.58 16.674,0 c -0.177,5.5 -0.933,10.774 -2.214,15.58 l 0,0 -14.46,0 z m -19.461,0 C 45.76,77.275 45.003,72.001 44.827,66.501 l 0,0 16.674,0 0,15.58 -14.462,0 z m -17.901,0 C 26.681,77.363 25.154,72.09 24.801,66.501 l 0,0 15.022,0 c 0.169,5.525 0.894,10.778 2.071,15.58 l 0,0 -12.756,0 z M 88.177,61.501 C 88.006,55.871 87.256,50.526 86.04,45.652 l 0,0 12.684,0 c 2.539,4.785 4.115,10.153 4.475,15.849 l 0,0 -15.022,0 z m -21.677,0 0,-15.849 14.387,0 c 1.324,4.879 2.106,10.245 2.287,15.849 l 0,0 -16.674,0 z m -21.673,0 c 0.179,-5.604 0.961,-10.97 2.286,-15.849 l 0,0 14.388,0 0,15.849 -16.674,0 z m -20.026,0 c 0.36,-5.696 1.936,-11.064 4.475,-15.849 l 0,0 12.684,0 c -1.215,4.874 -1.966,10.219 -2.137,15.849 l 0,0 -15.022,0 z M 84.577,40.651 C 82.73,35.221 80.26,30.577 77.349,27.052 l 0,0 c 7.334,2.658 13.656,7.44 18.224,13.599 l 0,0 -10.996,0 z m -18.077,0 0,-15.555 c 3.673,1.114 7.3,4.616 10.238,9.987 l 0,0 c 0.944,1.728 1.787,3.595 2.535,5.568 l 0,0 -12.773,0 z m -17.773,0 c 0.749,-1.973 1.591,-3.84 2.535,-5.568 l 0,0 C 54.2,29.712 57.828,26.21 61.501,25.096 l 0,0 0,15.555 -12.774,0 z m -16.3,0 C 36.995,34.492 43.318,29.71 50.652,27.052 l 0,0 c -2.912,3.525 -5.382,8.169 -7.229,13.599 l 0,0 -10.996,0 z"
               style="fill:url(#linearGradient24);stroke:none"
               id="path30" /></g></g></g></g></g></svg>