<?xml version="1.0" encoding="UTF-8" standalone="no"?>
<!-- Created with Inkscape (http://www.inkscape.org/) -->

<svg
   xmlns:dc="http://purl.org/dc/elements/1.1/"
   xmlns:cc="http://creativecommons.org/ns#"
   xmlns:rdf="http://www.w3.org/1999/02/22-rdf-syntax-ns#"
   xmlns:svg="http://www.w3.org/2000/svg"
   xmlns="http://www.w3.org/2000/svg"
   xmlns:sodipodi="http://sodipodi.sourceforge.net/DTD/sodipodi-0.dtd"
   xmlns:inkscape="http://www.inkscape.org/namespaces/inkscape"
   id="svg2"
   version="1.1"
   inkscape:version="0.48.4 r9939"
   width="160"
   height="160"
   xml:space="preserve"
   sodipodi:docname="corporation.pdf"><metadata
     id="metadata8"><rdf:RDF><cc:Work
         rdf:about=""><dc:format>image/svg+xml</dc:format><dc:type
           rdf:resource="http://purl.org/dc/dcmitype/StillImage" /><dc:title></dc:title></cc:Work></rdf:RDF></metadata><defs
     id="defs6"><linearGradient
       x1="0"
       y1="0"
       x2="1"
       y2="0"
       gradientUnits="userSpaceOnUse"
       gradientTransform="matrix(0,77.904297,77.904297,0,64.638649,24.361299)"
       spreadMethod="pad"
       id="linearGradient24"><stop
         style="stop-opacity:1;stop-color:#666666"
         offset="0"
         id="stop26" /><stop
         style="stop-opacity:1;stop-color:#d5dfe6"
         offset="1"
         id="stop28" /></linearGradient></defs><sodipodi:namedview
     pagecolor="#ffffff"
     bordercolor="#666666"
     borderopacity="1"
     objecttolerance="10"
     gridtolerance="10"
     guidetolerance="10"
     inkscape:pageopacity="0"
     inkscape:pageshadow="2"
     inkscape:window-width="640"
     inkscape:window-height="480"
     id="namedview4"
     showgrid="false"
     inkscape:zoom="1.475"
     inkscape:cx="80"
     inkscape:cy="80"
     inkscape:window-x="0"
     inkscape:window-y="0"
     inkscape:window-maximized="0"
     inkscape:current-layer="g10" /><g
     id="g10"
     inkscape:groupmode="layer"
     inkscape:label="corporation"
     transform="matrix(1.25,0,0,-1.25,0,160)"><g
       id="g12"><g
         id="g14"><g
           id="g20"><g
             id="g22"><path
               d="m 57.938,81.625 -21.708,0 17.559,-12.75 -5.125,-15.766 -0.518,-1.591 -1.068,-3.288 1.801,1.309 4.914,3.57 10.844,7.879 10.845,-7.879 4.914,-3.57 1.801,-1.309 -1.067,3.288 -0.518,1.591 -5.122,15.766 17.557,12.746 -21.705,0.004 -6.705,20.64 -6.699,-20.64 z m 46.804,-7.164 C 104.742,56.01 92.276,40.478 75.31,35.803 l 0,0 -4.236,-11.442 c 21.424,3.118 37.883,21.557 37.883,43.846 l 0,0 c 0,12.356 -5.061,23.525 -13.218,31.564 l 0,0 c 5.626,-6.902 9.003,-15.71 9.003,-25.31 M 20.32,68.207 c 0,-22.291 16.459,-40.728 37.886,-43.846 l 0,0 -4.238,11.442 C 37.001,40.477 24.535,56.01 24.535,74.461 l 0,0 c 0,9.597 3.376,18.405 8.998,25.307 l 0,0 C 25.379,91.731 20.32,80.561 20.32,68.207"
               style="fill:url(#linearGradient24);stroke:none"
               id="path30" /></g></g></g></g></g></svg>