<?xml version="1.0" encoding="UTF-8" standalone="no"?>
<!-- Created with Inkscape (http://www.inkscape.org/) -->

<svg
   xmlns:dc="http://purl.org/dc/elements/1.1/"
   xmlns:cc="http://creativecommons.org/ns#"
   xmlns:rdf="http://www.w3.org/1999/02/22-rdf-syntax-ns#"
   xmlns:svg="http://www.w3.org/2000/svg"
   xmlns="http://www.w3.org/2000/svg"
   xmlns:sodipodi="http://sodipodi.sourceforge.net/DTD/sodipodi-0.dtd"
   xmlns:inkscape="http://www.inkscape.org/namespaces/inkscape"
   id="svg2"
   version="1.1"
   inkscape:version="0.48.4 r9939"
   width="160"
   height="160"
   xml:space="preserve"
   sodipodi:docname="grouplist.pdf"><metadata
     id="metadata8"><rdf:RDF><cc:Work
         rdf:about=""><dc:format>image/svg+xml</dc:format><dc:type
           rdf:resource="http://purl.org/dc/dcmitype/StillImage" /><dc:title></dc:title></cc:Work></rdf:RDF></metadata><defs
     id="defs6"><clipPath
       clipPathUnits="userSpaceOnUse"
       id="clipPath16"><path
         d="M 0,128 128,128 128,0 0,0 0,128 z"
         id="path18" /></clipPath><clipPath
       clipPathUnits="userSpaceOnUse"
       id="clipPath24"><path
         d="m 18.7825,97.9863 90.4355,0 0,-48.8543 -90.4355,0 0,48.8543 z"
         id="path26" /></clipPath><linearGradient
       x1="0"
       y1="0"
       x2="1"
       y2="0"
       gradientUnits="userSpaceOnUse"
       gradientTransform="matrix(0,48.854248,48.854248,0,64.00016,49.132042)"
       spreadMethod="pad"
       id="linearGradient32"><stop
         style="stop-opacity:1;stop-color:#666666"
         offset="0"
         id="stop34" /><stop
         style="stop-opacity:1;stop-color:#d5dfe6"
         offset="1"
         id="stop36" /></linearGradient><linearGradient
       x1="0"
       y1="0"
       x2="1"
       y2="0"
       gradientUnits="userSpaceOnUse"
       gradientTransform="matrix(0,48.854248,48.854248,0,63.885052,30.013632)"
       spreadMethod="pad"
       id="linearGradient64"><stop
         style="stop-opacity:1;stop-color:#666666"
         offset="0"
         id="stop66" /><stop
         style="stop-opacity:1;stop-color:#d5dfe6"
         offset="1"
         id="stop68" /></linearGradient></defs><sodipodi:namedview
     pagecolor="#ffffff"
     bordercolor="#666666"
     borderopacity="1"
     objecttolerance="10"
     gridtolerance="10"
     guidetolerance="10"
     inkscape:pageopacity="0"
     inkscape:pageshadow="2"
     inkscape:window-width="640"
     inkscape:window-height="480"
     id="namedview4"
     showgrid="false"
     inkscape:zoom="1.475"
     inkscape:cx="80"
     inkscape:cy="80"
     inkscape:window-x="0"
     inkscape:window-y="0"
     inkscape:window-maximized="0"
     inkscape:current-layer="g10" /><g
     id="g10"
     inkscape:groupmode="layer"
     inkscape:label="grouplist"
     transform="matrix(1.25,0,0,-1.25,0,160)"><g
       id="g12"><g
         id="g14"
         clip-path="url(#clipPath16)"><g
           id="g20"><g
             id="g22" /><g
             id="g38"><g
               clip-path="url(#clipPath24)"
               opacity="0.75"
               id="g40"><g
                 id="g42"><g
                   id="g44"><g
                     id="g46"><g
                       id="g48"><path
                         d="m 109.218,49.132 0,7.07 c 0,0 -10.217,4.152 -14.346,6.121 -3.375,1.609 -2.515,7.399 -2.515,7.399 0,0 1.07,0.994 1.337,2.706 0.268,1.713 0.567,3.666 0.567,3.666 0,0 0.049,-0.009 0.129,-0.009 0.265,0 0.874,0.101 1.209,0.97 0.432,1.129 0.534,1.541 0.801,2.808 0.264,1.252 0.716,4.148 -0.357,4.148 -0.015,0 -0.029,0 -0.045,-0.002 -0.058,-0.004 -0.217,-0.097 -0.356,-0.097 -0.135,0 -0.251,0.087 -0.241,0.424 0,0 1.617,13.65 -10.52,13.65 -12.138,0 -10.52,-13.65 -10.52,-13.65 0.009,-0.337 -0.107,-0.424 -0.242,-0.424 -0.139,0 -0.297,0.093 -0.356,0.097 -0.015,0.002 -0.03,0.002 -0.045,0.002 -0.79,0 -0.752,-1.57 -0.572,-2.898 0.894,-0.644 1.623,-1.331 2.2,-1.981 3.243,-3.65 4.006,-8.39 4.119,-11.459 1.354,-1.803 1.609,-4.272 0.832,-7.958 C 79.995,58.279 79.828,57.6 79.268,56.138 78.936,55.275 78.449,54.515 77.849,53.89 77.78,53.449 77.708,52.986 77.638,52.539 77.422,51.154 76.951,50.025 76.445,49.132 l 8.436,0 24.337,0 z m -57.893,0 -8.205,0 -24.338,0 0,7.07 c 0,0 10.217,4.152 14.347,6.121 3.374,1.609 2.515,7.399 2.515,7.399 0,0 -1.07,0.994 -1.337,2.706 -0.268,1.713 -0.568,3.666 -0.568,3.666 0,0 -0.049,-0.009 -0.129,-0.009 -0.265,0 -0.874,0.101 -1.208,0.97 -0.433,1.129 -0.535,1.541 -0.801,2.808 -0.264,1.252 -0.717,4.148 0.356,4.148 0.015,0 0.03,0 0.045,-0.002 0.059,-0.004 0.217,-0.097 0.356,-0.097 0.135,0 0.251,0.087 0.242,0.424 0,0 -1.618,13.65 10.52,13.65 12.137,0 10.52,-13.65 10.52,-13.65 -0.01,-0.337 0.106,-0.424 0.241,-0.424 0.139,0 0.298,0.093 0.356,0.097 0.016,0.002 0.03,0.002 0.045,0.002 0.756,0 0.754,-1.435 0.595,-2.722 -1.011,-0.694 -1.822,-1.447 -2.453,-2.157 -3.242,-3.65 -4.006,-8.389 -4.119,-11.459 -1.353,-1.802 -1.609,-4.271 -0.832,-7.959 0.303,-1.436 0.469,-2.115 1.025,-3.565 0.334,-0.868 0.822,-1.629 1.423,-2.257 0.069,-0.442 0.141,-0.907 0.211,-1.355 0.216,-1.384 0.687,-2.513 1.193,-3.405"
                         style="fill:url(#linearGradient32);stroke:none"
                         id="path50" /></g></g></g></g></g></g></g></g></g><g
       id="g52"><g
         id="g54"><g
           id="g60"><g
             id="g62"><path
               d="m 53.365,65.218 c 0.009,-0.337 -0.107,-0.424 -0.242,-0.424 l 0,0 c -0.138,0 -0.297,0.092 -0.356,0.097 l 0,0 c -0.014,0.002 -0.03,0.002 -0.044,0.002 l 0,0 c -1.074,0 -0.621,-2.896 -0.357,-4.148 l 0,0 c 0.267,-1.268 0.369,-1.679 0.801,-2.808 l 0,0 c 0.334,-0.869 0.944,-0.971 1.208,-0.971 l 0,0 c 0.08,0 0.13,0.01 0.13,0.01 l 0,0 c 0,0 0.3,-1.954 0.567,-3.666 l 0,0 c 0.267,-1.713 1.337,-2.707 1.337,-2.707 l 0,0 c 0,0 0.86,-5.789 -2.515,-7.399 l 0,0 c -4.129,-1.969 -14.346,-6.12 -14.346,-6.12 l 0,0 0,-7.071 24.337,0 24.338,0 0,7.071 c 0,0 -10.218,4.151 -14.347,6.12 l 0,0 c -3.375,1.61 -2.515,7.399 -2.515,7.399 l 0,0 c 0,0 1.07,0.994 1.337,2.707 l 0,0 c 0.268,1.712 0.567,3.666 0.567,3.666 l 0,0 c 0,0 0.049,-0.01 0.13,-0.01 l 0,0 c 0.265,0 0.873,0.102 1.208,0.971 l 0,0 c 0.433,1.129 0.534,1.54 0.801,2.808 l 0,0 c 0.264,1.252 0.716,4.148 -0.357,4.148 l 0,0 c -0.014,0 -0.029,0 -0.045,-0.002 l 0,0 c -0.058,-0.005 -0.216,-0.097 -0.355,-0.097 l 0,0 c -0.135,0 -0.252,0.087 -0.242,0.424 l 0,0 c 0,0 1.618,13.65 -10.52,13.65 l 0,0 c -12.138,0 -10.52,-13.65 -10.52,-13.65"
               style="fill:url(#linearGradient64);stroke:none"
               id="path70" /></g></g></g></g></g></svg>