<?xml version="1.0" encoding="UTF-8" standalone="no"?>
<!-- Created with Inkscape (http://www.inkscape.org/) -->

<svg
   xmlns:dc="http://purl.org/dc/elements/1.1/"
   xmlns:cc="http://creativecommons.org/ns#"
   xmlns:rdf="http://www.w3.org/1999/02/22-rdf-syntax-ns#"
   xmlns:svg="http://www.w3.org/2000/svg"
   xmlns="http://www.w3.org/2000/svg"
   xmlns:sodipodi="http://sodipodi.sourceforge.net/DTD/sodipodi-0.dtd"
   xmlns:inkscape="http://www.inkscape.org/namespaces/inkscape"
   id="svg2"
   version="1.1"
   inkscape:version="0.48.4 r9939"
   width="160"
   height="160"
   xml:space="preserve"
   sodipodi:docname="journal.pdf"><metadata
     id="metadata8"><rdf:RDF><cc:Work
         rdf:about=""><dc:format>image/svg+xml</dc:format><dc:type
           rdf:resource="http://purl.org/dc/dcmitype/StillImage" /><dc:title></dc:title></cc:Work></rdf:RDF></metadata><defs
     id="defs6"><linearGradient
       x1="0"
       y1="0"
       x2="1"
       y2="0"
       gradientUnits="userSpaceOnUse"
       gradientTransform="matrix(0,84.997948,84.997948,0,64,22.4375)"
       spreadMethod="pad"
       id="linearGradient24"><stop
         style="stop-opacity:1;stop-color:#666666"
         offset="0"
         id="stop26" /><stop
         style="stop-opacity:1;stop-color:#d5dfe6"
         offset="1"
         id="stop28" /></linearGradient></defs><sodipodi:namedview
     pagecolor="#ffffff"
     bordercolor="#666666"
     borderopacity="1"
     objecttolerance="10"
     gridtolerance="10"
     guidetolerance="10"
     inkscape:pageopacity="0"
     inkscape:pageshadow="2"
     inkscape:window-width="640"
     inkscape:window-height="480"
     id="namedview4"
     showgrid="false"
     inkscape:zoom="1.475"
     inkscape:cx="80"
     inkscape:cy="80"
     inkscape:window-x="0"
     inkscape:window-y="0"
     inkscape:window-maximized="0"
     inkscape:current-layer="g10" /><g
     id="g10"
     inkscape:groupmode="layer"
     inkscape:label="journal"
     transform="matrix(1.25,0,0,-1.25,0,160)"><g
       id="g12"><g
         id="g14"><g
           id="g20"><g
             id="g22"><path
               d="m 87.286,107.137 -7.697,-7.701 6.246,-6.246 7.701,7.701 c 1.52,1.52 -3.142,6.544 -5.458,6.545 l 0,0 c -0.314,0 -0.585,-0.093 -0.792,-0.299 M 43.77,63.617 34.352,47.955 50.017,57.371 83.172,90.524 76.922,96.773 43.77,63.617 z m 47.308,27.742 -5,-5 14.44,0 0,-50.8 -25.894,0 c -3.067,0 -5.889,-1.055 -8.122,-2.822 l 0,0 0,34.047 -5,-5.001 0,-29.046 c -2.235,1.767 -5.059,2.822 -8.125,2.822 l 0,0 -25.895,0 0,50.8 25.895,0 c 1.716,0 3.306,-0.533 4.618,-1.443 l 0,0 3.567,3.567 c -2.248,1.796 -5.087,2.876 -8.185,2.876 l 0,0 -30.896,0 0,-60.8 30.896,0 c 4.48,0 8.125,-3.643 8.125,-8.121 l 0,0 5,0 c 0,4.478 3.642,8.121 8.122,8.121 l 0,0 30.895,0 0,60.8 -14.441,0 z"
               style="fill:url(#linearGradient24);stroke:none"
               id="path30" /></g></g></g></g></g></svg>