<?xml version="1.0" encoding="UTF-8" standalone="no"?>
<!-- Created with Inkscape (http://www.inkscape.org/) -->

<svg
   xmlns:dc="http://purl.org/dc/elements/1.1/"
   xmlns:cc="http://creativecommons.org/ns#"
   xmlns:rdf="http://www.w3.org/1999/02/22-rdf-syntax-ns#"
   xmlns:svg="http://www.w3.org/2000/svg"
   xmlns="http://www.w3.org/2000/svg"
   xmlns:sodipodi="http://sodipodi.sourceforge.net/DTD/sodipodi-0.dtd"
   xmlns:inkscape="http://www.inkscape.org/namespaces/inkscape"
   id="svg2"
   version="1.1"
   inkscape:version="0.48.4 r9939"
   width="160"
   height="160"
   xml:space="preserve"
   sodipodi:docname="jukebox.pdf"><metadata
     id="metadata8"><rdf:RDF><cc:Work
         rdf:about=""><dc:format>image/svg+xml</dc:format><dc:type
           rdf:resource="http://purl.org/dc/dcmitype/StillImage" /><dc:title></dc:title></cc:Work></rdf:RDF></metadata><defs
     id="defs6"><linearGradient
       x1="0"
       y1="0"
       x2="1"
       y2="0"
       gradientUnits="userSpaceOnUse"
       gradientTransform="matrix(0,80.962555,80.962555,0,62,22.518721)"
       spreadMethod="pad"
       id="linearGradient24"><stop
         style="stop-opacity:1;stop-color:#666666"
         offset="0"
         id="stop26" /><stop
         style="stop-opacity:1;stop-color:#d5dfe6"
         offset="1"
         id="stop28" /></linearGradient></defs><sodipodi:namedview
     pagecolor="#ffffff"
     bordercolor="#666666"
     borderopacity="1"
     objecttolerance="10"
     gridtolerance="10"
     guidetolerance="10"
     inkscape:pageopacity="0"
     inkscape:pageshadow="2"
     inkscape:window-width="640"
     inkscape:window-height="480"
     id="namedview4"
     showgrid="false"
     inkscape:zoom="1.475"
     inkscape:cx="80"
     inkscape:cy="80"
     inkscape:window-x="0"
     inkscape:window-y="0"
     inkscape:window-maximized="0"
     inkscape:current-layer="g10" /><g
     id="g10"
     inkscape:groupmode="layer"
     inkscape:label="jukebox"
     transform="matrix(1.25,0,0,-1.25,0,160)"><g
       id="g12"><g
         id="g14"><g
           id="g20"><g
             id="g22"><path
               d="m 48.108,96.97 0,-54.521 -1.385,0.6 c -1.881,0.815 -4.067,1.246 -6.325,1.246 l 0,0 c -0.535,0 -1.082,-0.024 -1.626,-0.071 l 0,0 C 30.902,43.536 24.5,38.088 24.5,32.079 l 0,0 c 0,-2.608 1.245,-5.012 3.508,-6.77 l 0,0 c 2.675,-2.079 6.538,-3.073 10.591,-2.721 l 0,0 c 7.871,0.689 14.273,6.136 14.273,12.146 l 0,0 c 0,0.036 -0.004,0.071 -0.007,0.106 l 0,0 c -0.007,0.075 -0.013,0.15 -0.015,0.226 l 0,0 -0.028,1.017 0.05,0 0,44.48 41.863,5.483 0,-36.853 -1.384,0.6 c -2.33,1.01 -5.122,1.423 -7.952,1.176 l 0,0 C 77.53,50.281 71.127,44.833 71.127,38.824 l 0,0 c 0,-5.451 5.362,-9.562 12.472,-9.562 l 0,0 c 0.537,0 1.084,0.024 1.628,0.072 l 0,0 C 93.097,30.022 99.5,35.47 99.5,41.478 l 0,0 c 0,0.043 -0.004,0.082 -0.009,0.123 l 0,0 c -0.005,0.064 -0.01,0.128 -0.013,0.195 l 0,0 -0.044,1.031 0.066,0 0,60.654 -51.392,-6.511 z"
               style="fill:url(#linearGradient24);stroke:none"
               id="path30" /></g></g></g></g></g></svg>