<?xml version="1.0" encoding="UTF-8" standalone="no"?>
<!-- Created with Inkscape (http://www.inkscape.org/) -->

<svg
   xmlns:dc="http://purl.org/dc/elements/1.1/"
   xmlns:cc="http://creativecommons.org/ns#"
   xmlns:rdf="http://www.w3.org/1999/02/22-rdf-syntax-ns#"
   xmlns:svg="http://www.w3.org/2000/svg"
   xmlns="http://www.w3.org/2000/svg"
   xmlns:sodipodi="http://sodipodi.sourceforge.net/DTD/sodipodi-0.dtd"
   xmlns:inkscape="http://www.inkscape.org/namespaces/inkscape"
   id="svg2"
   version="1.1"
   inkscape:version="0.48.4 r9939"
   width="160"
   height="160"
   xml:space="preserve"
   sodipodi:docname="map.pdf"><metadata
     id="metadata8"><rdf:RDF><cc:Work
         rdf:about=""><dc:format>image/svg+xml</dc:format><dc:type
           rdf:resource="http://purl.org/dc/dcmitype/StillImage" /><dc:title></dc:title></cc:Work></rdf:RDF></metadata><defs
     id="defs6"><clipPath
       clipPathUnits="userSpaceOnUse"
       id="clipPath16"><path
         d="M 0,128 128,128 128,0 0,0 0,128 z"
         id="path18" /></clipPath><clipPath
       clipPathUnits="userSpaceOnUse"
       id="clipPath24"><path
         d="m 36.626,87.5898 65.917,0 0,-48.2636 -65.917,0 0,48.2636 z"
         id="path26" /></clipPath><linearGradient
       x1="0"
       y1="0"
       x2="1"
       y2="0"
       gradientUnits="userSpaceOnUse"
       gradientTransform="matrix(0,48.263599,48.263599,0,69.584503,39.326199)"
       spreadMethod="pad"
       id="linearGradient32"><stop
         style="stop-opacity:1;stop-color:#666666"
         offset="0"
         id="stop34" /><stop
         style="stop-opacity:1;stop-color:#d5dfe6"
         offset="1"
         id="stop36" /></linearGradient><linearGradient
       x1="0"
       y1="0"
       x2="1"
       y2="0"
       gradientUnits="userSpaceOnUse"
       gradientTransform="matrix(0,77.693298,77.693298,0,59.173794,23.709)"
       spreadMethod="pad"
       id="linearGradient64"><stop
         style="stop-opacity:1;stop-color:#666666"
         offset="0"
         id="stop66" /><stop
         style="stop-opacity:1;stop-color:#d5dfe6"
         offset="1"
         id="stop68" /></linearGradient></defs><sodipodi:namedview
     pagecolor="#ffffff"
     bordercolor="#666666"
     borderopacity="1"
     objecttolerance="10"
     gridtolerance="10"
     guidetolerance="10"
     inkscape:pageopacity="0"
     inkscape:pageshadow="2"
     inkscape:window-width="640"
     inkscape:window-height="480"
     id="namedview4"
     showgrid="false"
     inkscape:zoom="1.475"
     inkscape:cx="80"
     inkscape:cy="80"
     inkscape:window-x="0"
     inkscape:window-y="0"
     inkscape:window-maximized="0"
     inkscape:current-layer="g10" /><g
     id="g10"
     inkscape:groupmode="layer"
     inkscape:label="map"
     transform="matrix(1.25,0,0,-1.25,0,160)"><g
       id="g12"><g
         id="g14"
         clip-path="url(#clipPath16)"><g
           id="g20"><g
             id="g22" /><g
             id="g38"><g
               clip-path="url(#clipPath24)"
               opacity="0.5"
               id="g40"><g
                 id="g42"><g
                   id="g44"><g
                     id="g46"><g
                       id="g48"><path
                         d="M 85.564,77.965 C 84.662,77.236 83.573,76.726 82.378,76.518 L 99.361,39.326 c 0.871,0.772 1.969,1.292 3.182,1.451 L 85.564,77.965 z M 71.198,65.201 c 1.217,-0.146 2.32,-0.656 3.201,-1.416 l 5.622,12.719 c -1.196,0.193 -2.292,0.69 -3.202,1.412 L 71.198,65.201 z m -6.715,-5.879 -23.359,-6.801 7.092,-1.58 17.244,5.024 c -0.619,0.945 -0.981,2.07 -0.981,3.285 0,0.024 0.004,0.049 0.004,0.072 m 1.566,3.966 c 0.792,0.868 1.831,1.5 3.011,1.784 L 55.707,87.59 C 54.858,86.784 53.835,86.166 52.7,85.799 L 66.049,63.288 z M 38.037,54.84 36.626,61.191 45.91,86.674 c 0.972,-0.625 2.089,-1.043 3.288,-1.199 L 38.037,54.84 z"
                         style="fill:url(#linearGradient32);stroke:none"
                         id="path50" /></g></g></g></g></g></g></g></g></g><g
       id="g52"><g
         id="g54"><g
           id="g60"><g
             id="g62"><path
               d="m 42.226,93.402 c 0,-2.826 1.471,-5.306 3.684,-6.728 l 0,0 c 0.972,-0.625 2.089,-1.043 3.289,-1.199 l 0,0 c 0.336,-0.045 0.678,-0.073 1.027,-0.073 l 0,0 c 0.865,0 1.695,0.139 2.474,0.397 l 0,0 c 1.135,0.367 2.158,0.985 3.007,1.791 l 0,0 c 1.546,1.459 2.516,3.517 2.516,5.812 l 0,0 c 0,4.416 -3.58,8 -7.997,8 l 0,0 c -4.42,0 -8,-3.584 -8,-8 m 31.932,-10 c 0,-2.226 1.042,-4.205 2.662,-5.486 l 0,0 c 0.909,-0.722 2.005,-1.219 3.201,-1.412 l 0,0 c 0.37,-0.063 0.747,-0.102 1.136,-0.102 l 0,0 c 0.416,0 0.824,0.042 1.222,0.116 l 0,0 c 1.194,0.208 2.282,0.718 3.186,1.447 l 0,0 c 1.581,1.285 2.595,3.243 2.595,5.437 l 0,0 c 0,3.868 -3.138,7 -7.003,7 l 0,0 c -3.865,0 -6.999,-3.132 -6.999,-7 M 29.369,53.118 9.014,48.59 l 20.355,-4.523 4.529,-20.358 4.523,20.353 20.361,4.528 -10.566,2.352 -7.092,1.579 -2.705,0.6 -0.382,1.719 -1.411,6.351 -2.728,12.285 -4.529,-20.358 z M 69.06,65.073 c -1.179,-0.285 -2.219,-0.917 -3.011,-1.785 l 0,0 C 65.092,62.24 64.5,60.854 64.483,59.323 l 0,0 c 0,-0.024 -0.003,-0.049 -0.003,-0.073 l 0,0 c 0,-1.214 0.36,-2.339 0.981,-3.285 l 0,0 c 1.071,-1.635 2.916,-2.715 5.015,-2.715 l 0,0 c 3.316,0 6.003,2.688 6.003,6 l 0,0 c 0,1.812 -0.807,3.438 -2.08,4.535 l 0,0 c -0.882,0.76 -1.984,1.27 -3.201,1.416 l 0,0 c -0.238,0.027 -0.477,0.049 -0.722,0.049 l 0,0 c -0.489,0 -0.962,-0.067 -1.416,-0.177 m 33.483,-24.296 c -1.214,-0.159 -2.311,-0.679 -3.182,-1.451 l 0,0 C 98.118,38.229 97.333,36.625 97.333,34.84 l 0,0 c 0,-3.318 2.686,-6.002 6,-6.002 l 0,0 c 3.313,0 6,2.684 6,6.002 l 0,0 c 0,3.312 -2.687,5.997 -6,5.997 l 0,0 c -0.267,0 -0.531,-0.025 -0.79,-0.06"
               style="fill:url(#linearGradient64);stroke:none"
               id="path70" /></g></g></g></g></g></svg>