<?xml version="1.0" encoding="UTF-8" standalone="no"?>
<!-- Created with Inkscape (http://www.inkscape.org/) -->

<svg
   xmlns:dc="http://purl.org/dc/elements/1.1/"
   xmlns:cc="http://creativecommons.org/ns#"
   xmlns:rdf="http://www.w3.org/1999/02/22-rdf-syntax-ns#"
   xmlns:svg="http://www.w3.org/2000/svg"
   xmlns="http://www.w3.org/2000/svg"
   xmlns:sodipodi="http://sodipodi.sourceforge.net/DTD/sodipodi-0.dtd"
   xmlns:inkscape="http://www.inkscape.org/namespaces/inkscape"
   id="svg2"
   version="1.1"
   inkscape:version="0.48.4 r9939"
   width="160"
   height="160"
   xml:space="preserve"
   sodipodi:docname="member.pdf"><metadata
     id="metadata8"><rdf:RDF><cc:Work
         rdf:about=""><dc:format>image/svg+xml</dc:format><dc:type
           rdf:resource="http://purl.org/dc/dcmitype/StillImage" /><dc:title></dc:title></cc:Work></rdf:RDF></metadata><defs
     id="defs6"><linearGradient
       x1="0"
       y1="0"
       x2="1"
       y2="0"
       gradientUnits="userSpaceOnUse"
       gradientTransform="matrix(0,86.764137,86.764137,0,64.000061,23.499926)"
       spreadMethod="pad"
       id="linearGradient24"><stop
         style="stop-opacity:1;stop-color:#666666"
         offset="0"
         id="stop26" /><stop
         style="stop-opacity:1;stop-color:#d5dfe6"
         offset="1"
         id="stop28" /></linearGradient></defs><sodipodi:namedview
     pagecolor="#ffffff"
     bordercolor="#666666"
     borderopacity="1"
     objecttolerance="10"
     gridtolerance="10"
     guidetolerance="10"
     inkscape:pageopacity="0"
     inkscape:pageshadow="2"
     inkscape:window-width="640"
     inkscape:window-height="480"
     id="namedview4"
     showgrid="false"
     inkscape:zoom="1.475"
     inkscape:cx="80"
     inkscape:cy="80"
     inkscape:window-x="0"
     inkscape:window-y="0"
     inkscape:window-maximized="0"
     inkscape:current-layer="g10" /><g
     id="g10"
     inkscape:groupmode="layer"
     inkscape:label="member"
     transform="matrix(1.25,0,0,-1.25,0,160)"><g
       id="g12"><g
         id="g14"><g
           id="g20"><g
             id="g22"><path
               d="m 45.317,86.022 c 0.035,-1.218 -0.857,-0.598 -1.062,-0.581 l 0,0 c -2.007,0.144 -1.187,-5.11 -0.713,-7.363 l 0,0 c 0.474,-2.25 0.655,-2.982 1.423,-4.988 l 0,0 c 0.775,-2.01 2.375,-1.706 2.375,-1.706 l 0,0 c 0,0 0.533,-3.469 1.008,-6.511 l 0,0 c 0.474,-3.041 2.375,-4.805 2.375,-4.805 l 0,0 c 0,0 1.526,-10.284 -4.467,-13.141 l 0,0 C 38.923,43.43 20.777,36.057 20.777,36.057 l 0,0 0,-12.557 43.223,0 43.222,0 0,12.557 c 0,0 -18.145,7.373 -25.478,10.87 l 0,0 c -5.994,2.857 -4.466,13.141 -4.466,13.141 l 0,0 c 0,0 1.9,1.764 2.374,4.805 l 0,0 c 0.476,3.042 1.008,6.511 1.008,6.511 l 0,0 c 0,0 1.6,-0.304 2.375,1.706 l 0,0 c 0.768,2.006 0.949,2.738 1.423,4.988 l 0,0 c 0.475,2.253 1.294,7.507 -0.713,7.363 l 0,0 c -0.205,-0.017 -1.097,-0.637 -1.062,0.581 l 0,0 c 0,0 2.874,24.242 -18.683,24.242 l 0,0 c -21.556,0 -18.683,-24.242 -18.683,-24.242"
               style="fill:url(#linearGradient24);stroke:none"
               id="path30" /></g></g></g></g></g></svg>